<mxfile host="app.diagrams.net" modified="2022-07-26T07:21:10.755Z" agent="5.0 (Macintosh; Intel Mac OS X 10_15_7) AppleWebKit/605.1.15 (KHTML, like Gecko) Version/15.5 Safari/605.1.15" etag="4TRI2Z4HCwyYRDMMU7_S" version="20.1.3" type="github">
  <diagram id="SJ5i5U-_keJD7ChMoFX9" name="第 1 页">
    <mxGraphModel dx="1426" dy="825" grid="1" gridSize="10" guides="1" tooltips="1" connect="1" arrows="1" fold="1" page="1" pageScale="1" pageWidth="827" pageHeight="1169" math="0" shadow="0">
      <root>
        <mxCell id="0" />
        <mxCell id="1" parent="0" />
        <mxCell id="zmPBDK813r3FrNV3T3Ej-1" value="" style="whiteSpace=wrap;html=1;aspect=fixed;labelBackgroundColor=#FFFFFF;fontSize=18;fontColor=#333333;fillColor=#f5f5f5;strokeColor=#666666;" vertex="1" parent="1">
          <mxGeometry x="30" y="40" width="700" height="700" as="geometry" />
        </mxCell>
        <mxCell id="zmPBDK813r3FrNV3T3Ej-2" value="proxy" style="text;strokeColor=none;fillColor=none;html=1;fontSize=24;fontStyle=1;verticalAlign=middle;align=center;labelBackgroundColor=#FFFFFF;fontColor=#000000;" vertex="1" parent="1">
          <mxGeometry x="30" y="40" width="100" height="40" as="geometry" />
        </mxCell>
        <mxCell id="zmPBDK813r3FrNV3T3Ej-3" value="&lt;div style=&quot;text-align: start;&quot;&gt;/args&lt;/div&gt;" style="shape=ext;double=1;rounded=1;whiteSpace=wrap;html=1;labelBackgroundColor=#FFFFFF;fontSize=18;fontColor=#000000;" vertex="1" parent="1">
          <mxGeometry x="400" y="110" width="120" height="80" as="geometry" />
        </mxCell>
        <mxCell id="zmPBDK813r3FrNV3T3Ej-4" value="/env" style="shape=ext;double=1;rounded=1;whiteSpace=wrap;html=1;labelBackgroundColor=#FFFFFF;fontSize=18;fontColor=#000000;" vertex="1" parent="1">
          <mxGeometry x="200" y="110" width="120" height="80" as="geometry" />
        </mxCell>
        <mxCell id="zmPBDK813r3FrNV3T3Ej-5" value="return os.args" style="rounded=0;whiteSpace=wrap;html=1;labelBackgroundColor=#FFFFFF;fontSize=18;fontColor=#000000;" vertex="1" parent="1">
          <mxGeometry x="400" y="240" width="120" height="60" as="geometry" />
        </mxCell>
        <mxCell id="zmPBDK813r3FrNV3T3Ej-7" value="return viper.allsetting" style="rounded=0;whiteSpace=wrap;html=1;labelBackgroundColor=#FFFFFF;fontSize=18;fontColor=#000000;" vertex="1" parent="1">
          <mxGeometry x="165" y="240" width="190" height="60" as="geometry" />
        </mxCell>
        <mxCell id="zmPBDK813r3FrNV3T3Ej-8" value="" style="endArrow=classic;html=1;rounded=0;fontSize=18;fontColor=#000000;exitX=0.5;exitY=1;exitDx=0;exitDy=0;entryX=0.5;entryY=0;entryDx=0;entryDy=0;" edge="1" parent="1" source="zmPBDK813r3FrNV3T3Ej-4" target="zmPBDK813r3FrNV3T3Ej-7">
          <mxGeometry width="50" height="50" relative="1" as="geometry">
            <mxPoint x="390" y="450" as="sourcePoint" />
            <mxPoint x="440" y="400" as="targetPoint" />
          </mxGeometry>
        </mxCell>
        <mxCell id="zmPBDK813r3FrNV3T3Ej-9" value="" style="endArrow=classic;html=1;rounded=0;fontSize=18;fontColor=#000000;exitX=0.5;exitY=1;exitDx=0;exitDy=0;entryX=0.5;entryY=0;entryDx=0;entryDy=0;" edge="1" parent="1" source="zmPBDK813r3FrNV3T3Ej-3" target="zmPBDK813r3FrNV3T3Ej-5">
          <mxGeometry width="50" height="50" relative="1" as="geometry">
            <mxPoint x="390" y="450" as="sourcePoint" />
            <mxPoint x="440" y="400" as="targetPoint" />
          </mxGeometry>
        </mxCell>
        <mxCell id="zmPBDK813r3FrNV3T3Ej-10" value="/" style="shape=ext;double=1;rounded=1;whiteSpace=wrap;html=1;labelBackgroundColor=#FFFFFF;fontSize=18;fontColor=#000000;" vertex="1" parent="1">
          <mxGeometry x="580" y="110" width="120" height="80" as="geometry" />
        </mxCell>
        <mxCell id="zmPBDK813r3FrNV3T3Ej-11" value="" style="endArrow=classic;html=1;rounded=0;fontSize=18;fontColor=#000000;exitX=0.5;exitY=1;exitDx=0;exitDy=0;entryX=0.786;entryY=-0.002;entryDx=0;entryDy=0;entryPerimeter=0;" edge="1" parent="1" source="zmPBDK813r3FrNV3T3Ej-10" target="zmPBDK813r3FrNV3T3Ej-12">
          <mxGeometry width="50" height="50" relative="1" as="geometry">
            <mxPoint x="390" y="450" as="sourcePoint" />
            <mxPoint x="440" y="400" as="targetPoint" />
          </mxGeometry>
        </mxCell>
        <mxCell id="zmPBDK813r3FrNV3T3Ej-34" style="edgeStyle=orthogonalEdgeStyle;rounded=0;orthogonalLoop=1;jettySize=auto;html=1;exitX=0.25;exitY=0;exitDx=0;exitDy=0;entryX=0.5;entryY=0;entryDx=0;entryDy=0;fontSize=18;fontColor=#000000;" edge="1" parent="1" source="zmPBDK813r3FrNV3T3Ej-12" target="zmPBDK813r3FrNV3T3Ej-14">
          <mxGeometry relative="1" as="geometry" />
        </mxCell>
        <mxCell id="zmPBDK813r3FrNV3T3Ej-35" style="edgeStyle=orthogonalEdgeStyle;rounded=0;orthogonalLoop=1;jettySize=auto;html=1;exitX=0.25;exitY=0;exitDx=0;exitDy=0;entryX=0.5;entryY=0;entryDx=0;entryDy=0;fontSize=18;fontColor=#000000;" edge="1" parent="1" source="zmPBDK813r3FrNV3T3Ej-12" target="zmPBDK813r3FrNV3T3Ej-14">
          <mxGeometry relative="1" as="geometry" />
        </mxCell>
        <mxCell id="zmPBDK813r3FrNV3T3Ej-36" style="edgeStyle=orthogonalEdgeStyle;rounded=0;orthogonalLoop=1;jettySize=auto;html=1;exitX=0.5;exitY=0;exitDx=0;exitDy=0;fontSize=18;fontColor=#000000;" edge="1" parent="1" source="zmPBDK813r3FrNV3T3Ej-12" target="zmPBDK813r3FrNV3T3Ej-14">
          <mxGeometry relative="1" as="geometry">
            <Array as="points">
              <mxPoint x="440" y="310" />
            </Array>
          </mxGeometry>
        </mxCell>
        <mxCell id="zmPBDK813r3FrNV3T3Ej-12" value="" style="whiteSpace=wrap;html=1;aspect=fixed;labelBackgroundColor=#FFFFFF;fontSize=18;fillColor=#dae8fc;strokeColor=#6c8ebf;" vertex="1" parent="1">
          <mxGeometry x="300" y="310" width="430" height="430" as="geometry" />
        </mxCell>
        <mxCell id="zmPBDK813r3FrNV3T3Ej-26" style="edgeStyle=orthogonalEdgeStyle;rounded=0;orthogonalLoop=1;jettySize=auto;html=1;exitX=0.5;exitY=1;exitDx=0;exitDy=0;entryX=0.5;entryY=0;entryDx=0;entryDy=0;fontSize=18;fontColor=#000000;" edge="1" parent="1" source="zmPBDK813r3FrNV3T3Ej-14" target="zmPBDK813r3FrNV3T3Ej-16">
          <mxGeometry relative="1" as="geometry" />
        </mxCell>
        <mxCell id="zmPBDK813r3FrNV3T3Ej-14" value="authenticity" style="shape=ext;double=1;rounded=1;whiteSpace=wrap;html=1;labelBackgroundColor=#FFFFFF;fontSize=18;fontColor=#000000;" vertex="1" parent="1">
          <mxGeometry x="380" y="330" width="120" height="80" as="geometry" />
        </mxCell>
        <mxCell id="zmPBDK813r3FrNV3T3Ej-27" style="edgeStyle=orthogonalEdgeStyle;rounded=0;orthogonalLoop=1;jettySize=auto;html=1;exitX=0.5;exitY=1;exitDx=0;exitDy=0;entryX=0.5;entryY=0;entryDx=0;entryDy=0;fontSize=18;fontColor=#000000;" edge="1" parent="1" source="zmPBDK813r3FrNV3T3Ej-16" target="zmPBDK813r3FrNV3T3Ej-17">
          <mxGeometry relative="1" as="geometry" />
        </mxCell>
        <mxCell id="zmPBDK813r3FrNV3T3Ej-16" value="whitelist" style="shape=ext;double=1;rounded=1;whiteSpace=wrap;html=1;labelBackgroundColor=#FFFFFF;fontSize=18;fontColor=#000000;" vertex="1" parent="1">
          <mxGeometry x="380" y="430" width="120" height="80" as="geometry" />
        </mxCell>
        <mxCell id="zmPBDK813r3FrNV3T3Ej-28" style="edgeStyle=orthogonalEdgeStyle;rounded=0;orthogonalLoop=1;jettySize=auto;html=1;exitX=0.5;exitY=1;exitDx=0;exitDy=0;entryX=0.5;entryY=0;entryDx=0;entryDy=0;fontSize=18;fontColor=#000000;" edge="1" parent="1" source="zmPBDK813r3FrNV3T3Ej-17" target="zmPBDK813r3FrNV3T3Ej-18">
          <mxGeometry relative="1" as="geometry" />
        </mxCell>
        <mxCell id="zmPBDK813r3FrNV3T3Ej-17" value="Semaphore&lt;br&gt;控制并发数" style="shape=ext;double=1;rounded=1;whiteSpace=wrap;html=1;labelBackgroundColor=#FFFFFF;fontSize=18;fontColor=#000000;" vertex="1" parent="1">
          <mxGeometry x="380" y="530" width="120" height="80" as="geometry" />
        </mxCell>
        <mxCell id="zmPBDK813r3FrNV3T3Ej-29" style="edgeStyle=orthogonalEdgeStyle;rounded=0;orthogonalLoop=1;jettySize=auto;html=1;exitX=1;exitY=0.5;exitDx=0;exitDy=0;fontSize=18;fontColor=#000000;" edge="1" parent="1" source="zmPBDK813r3FrNV3T3Ej-18" target="zmPBDK813r3FrNV3T3Ej-19">
          <mxGeometry relative="1" as="geometry" />
        </mxCell>
        <mxCell id="zmPBDK813r3FrNV3T3Ej-18" value="Roundtrip(req)" style="shape=ext;double=1;rounded=1;whiteSpace=wrap;html=1;labelBackgroundColor=#FFFFFF;fontSize=18;fontColor=#000000;" vertex="1" parent="1">
          <mxGeometry x="380" y="630" width="120" height="80" as="geometry" />
        </mxCell>
        <mxCell id="zmPBDK813r3FrNV3T3Ej-30" style="edgeStyle=orthogonalEdgeStyle;rounded=0;orthogonalLoop=1;jettySize=auto;html=1;exitX=0.5;exitY=0;exitDx=0;exitDy=0;entryX=0.5;entryY=1;entryDx=0;entryDy=0;fontSize=18;fontColor=#000000;" edge="1" parent="1" source="zmPBDK813r3FrNV3T3Ej-19" target="zmPBDK813r3FrNV3T3Ej-21">
          <mxGeometry relative="1" as="geometry" />
        </mxCell>
        <mxCell id="zmPBDK813r3FrNV3T3Ej-19" value="shouldUseDragonfly" style="shape=ext;double=1;rounded=1;whiteSpace=wrap;html=1;labelBackgroundColor=#FFFFFF;fontSize=18;fontColor=#000000;" vertex="1" parent="1">
          <mxGeometry x="530" y="630" width="190" height="80" as="geometry" />
        </mxCell>
        <mxCell id="zmPBDK813r3FrNV3T3Ej-31" style="edgeStyle=orthogonalEdgeStyle;rounded=0;orthogonalLoop=1;jettySize=auto;html=1;exitX=0.5;exitY=0;exitDx=0;exitDy=0;entryX=0.5;entryY=1;entryDx=0;entryDy=0;fontSize=18;fontColor=#000000;" edge="1" parent="1" source="zmPBDK813r3FrNV3T3Ej-21" target="zmPBDK813r3FrNV3T3Ej-22">
          <mxGeometry relative="1" as="geometry" />
        </mxCell>
        <mxCell id="zmPBDK813r3FrNV3T3Ej-21" value="peerTask" style="shape=ext;double=1;rounded=1;whiteSpace=wrap;html=1;labelBackgroundColor=#FFFFFF;fontSize=18;fontColor=#000000;" vertex="1" parent="1">
          <mxGeometry x="560" y="530" width="120" height="80" as="geometry" />
        </mxCell>
        <mxCell id="zmPBDK813r3FrNV3T3Ej-32" style="edgeStyle=orthogonalEdgeStyle;rounded=0;orthogonalLoop=1;jettySize=auto;html=1;exitX=0.5;exitY=0;exitDx=0;exitDy=0;entryX=0.5;entryY=1;entryDx=0;entryDy=0;fontSize=18;fontColor=#000000;" edge="1" parent="1" source="zmPBDK813r3FrNV3T3Ej-22" target="zmPBDK813r3FrNV3T3Ej-24">
          <mxGeometry relative="1" as="geometry" />
        </mxCell>
        <mxCell id="zmPBDK813r3FrNV3T3Ej-22" value="startStreamTask" style="shape=ext;double=1;rounded=1;whiteSpace=wrap;html=1;labelBackgroundColor=#FFFFFF;fontSize=18;fontColor=#000000;" vertex="1" parent="1">
          <mxGeometry x="545" y="430" width="160" height="80" as="geometry" />
        </mxCell>
        <mxCell id="zmPBDK813r3FrNV3T3Ej-33" style="edgeStyle=orthogonalEdgeStyle;rounded=0;orthogonalLoop=1;jettySize=auto;html=1;exitX=0.5;exitY=0;exitDx=0;exitDy=0;entryX=0.75;entryY=0;entryDx=0;entryDy=0;fontSize=18;fontColor=#000000;" edge="1" parent="1" source="zmPBDK813r3FrNV3T3Ej-24" target="zmPBDK813r3FrNV3T3Ej-12">
          <mxGeometry relative="1" as="geometry" />
        </mxCell>
        <mxCell id="zmPBDK813r3FrNV3T3Ej-24" value="io.reader" style="shape=ext;double=1;rounded=1;whiteSpace=wrap;html=1;labelBackgroundColor=#FFFFFF;fontSize=18;fontColor=#000000;" vertex="1" parent="1">
          <mxGeometry x="560" y="330" width="120" height="80" as="geometry" />
        </mxCell>
        <mxCell id="zmPBDK813r3FrNV3T3Ej-25" value="" style="endArrow=classic;html=1;rounded=0;fontSize=18;fontColor=#000000;" edge="1" parent="1">
          <mxGeometry width="50" height="50" relative="1" as="geometry">
            <mxPoint x="440" y="400" as="sourcePoint" />
            <mxPoint x="440" y="400" as="targetPoint" />
          </mxGeometry>
        </mxCell>
      </root>
    </mxGraphModel>
  </diagram>
</mxfile>
